<?xml version="1.0" standalone="no"?>
<!DOCTYPE svg PUBLIC "-//W3C//DTD SVG 1.1//EN" "http://www.w3.org/Graphics/SVG/1.1/DTD/svg11.dtd" >
<svg xmlns="http://www.w3.org/2000/svg" xmlns:xlink="http://www.w3.org/1999/xlink" version="1.1">
<metadata></metadata>
<defs>
<font id="cascadia_coderegular" horiz-adv-x="1200" >
<font-face units-per-em="2048" ascent="1568" descent="-480" />
<missing-glyph horiz-adv-x="500" />
<glyph horiz-adv-x="0" />
<glyph horiz-adv-x="682" />
<glyph unicode=" " />
<glyph unicode="!" d="M452 128q0 40 20 74t54 54t74 20t74 -20t54 -54t20 -74t-20 -74t-54 -54t-74 -20t-74 20t-54 54t-20 74zM496 1430h208l-10 -974h-192z" />
<glyph unicode="&#x22;" d="M282 1420h232l-20 -640h-192zM686 1420h232l-20 -640h-192z" />
<glyph unicode="#" d="M120 360v170h179l30 360h-209v170h224l30 360h176l-30 -360h260l30 360h176l-30 -360h164v-170h-179l-30 -360h209v-170h-224l-30 -360h-176l30 360h-260l-30 -360h-176l30 360h-164zM475 530h260l30 360h-260z" />
<glyph unicode="$" d="M124 48l26 194q211 -84 394 -88v469l-82 37q-150 68 -225 162t-75 228q0 171 99.5 271t282.5 116v283h138v-283q161 -16 248.5 -103t87.5 -232h-196q0 59 -36 97t-104 51v-455l48 -23q164 -77 243 -171.5t79 -234.5q0 -339 -370 -388v-312h-138v304q-240 0 -420 78z M376 1060q0 -67 35.5 -110.5t110.5 -79.5l22 -10v390q-81 -14 -124.5 -63t-43.5 -127zM682 166q79 20 117.5 68.5t38.5 127.5q0 127 -130 186l-26 12v-394z" />
<glyph unicode="%" d="M54 1116q0 97 39 170.5t110 113.5t165 40t164.5 -39.5t109 -112.5t38.5 -172q0 -96 -39 -169t-109.5 -113t-163.5 -40q-94 0 -165 40t-110 113t-39 169zM94 432l930 674l92 -120l-930 -680zM240 1116q0 -69 35 -111.5t93 -42.5q57 0 91.5 42.5t34.5 111.5q0 72 -34.5 115 t-91.5 43q-58 0 -93 -43t-35 -115zM540 302q0 97 39 170.5t110 113.5t165 40q93 0 164 -40t109.5 -113.5t38.5 -170.5q0 -96 -39 -169t-109.5 -113t-163.5 -40q-94 0 -165 40t-110 113t-39 169zM726 302q0 -69 35 -111.5t93 -42.5q57 0 91.5 42.5t34.5 111.5 q0 71 -34.5 113.5t-91.5 42.5q-58 0 -93 -42.5t-35 -113.5z" />
<glyph unicode="&#x26;" d="M56 344q0 139 75 235.5t214 138.5q-64 91 -93.5 169t-29.5 155q0 190 106.5 294t301.5 104q171 0 265.5 -83.5t94.5 -234.5h-214q0 64 -37 99t-105 35q-92 0 -142 -56.5t-50 -159.5q0 -69 36 -137t108 -153l265 -312q49 138 49 328h192q0 -295 -104 -488l236 -278h-262 l-102 116q-156 -136 -398 -136q-121 0 -213 45t-142.5 127.5t-50.5 191.5zM258 354q0 -57 28 -100t80 -66.5t120 -23.5q150 0 251 93l-271 309l-19 22q-91 -35 -140 -95.5t-49 -138.5z" />
<glyph unicode="'" d="M482 1420h232l-20 -640h-192z" />
<glyph unicode="(" d="M266 716q0 292 80.5 499.5t234 316t369.5 108.5h48l-20 -170h-8q-160 0 -273 -88.5t-172 -258t-59 -407.5q0 -242 59 -414t172 -262t273 -90h8l20 -170h-48q-216 0 -369.5 110t-234 320t-80.5 506z" />
<glyph unicode=")" d="M202 -220l20 170h8q160 0 273 90t172 262t59 414q0 238 -59 407.5t-172 258t-273 88.5h-8l-20 170h48q216 0 369.5 -108.5t234 -316t80.5 -499.5q0 -296 -80.5 -506t-234 -320t-369.5 -110h-48z" />
<glyph unicode="*" d="M110 758l74 204l332 -148l-26 362h216l-26 -362l332 148l74 -204l-349 -100l253 -260l-166 -140l-226 313l-226 -313l-166 140l253 260z" />
<glyph unicode="+" d="M100 617v186h404v425h192v-425h404v-186h-404v-427h-192v427h-404z" />
<glyph unicode="," d="M402 -386l80 640h232l-120 -640h-192z" />
<glyph unicode="-" d="M100 616v186h1000v-186h-1000z" />
<glyph unicode="." d="M452 128q0 40 20 74t54 54t74 20t74 -20t54 -54t20 -74t-20 -74t-54 -54t-74 -20t-74 20t-54 54t-20 74z" />
<glyph unicode="/" d="M84 -280l814 1800h202l-814 -1800h-202z" />
<glyph unicode="0" d="M116 700q0 740 484 740t484 -740q0 -720 -484 -720t-484 720zM330 700q0 -536 270 -536t270 536q0 556 -270 556t-270 -556zM460 700q0 40 20 74t54 54t74 20q41 0 75.5 -20t54.5 -54t20 -74q0 -41 -20 -75.5t-54.5 -54.5t-75.5 -20q-40 0 -74 20t-54 54.5t-20 75.5z" />
<glyph unicode="1" d="M170 0v186h354v1038l-334 -76v192l334 80h212v-1234h316v-186h-882z" />
<glyph unicode="2" d="M150 1062q0 119 51.5 204t150 129.5t236.5 44.5q224 0 336 -106.5t112 -321.5q0 -217 -137 -415.5t-415 -380.5v-30h612v-186h-924v224q325 179 487.5 374.5t162.5 403.5q0 254 -248 254q-101 0 -155.5 -50.5t-54.5 -143.5h-214z" />
<glyph unicode="3" d="M122 398h214q0 -234 260 -234q135 0 209.5 62t74.5 174q0 124 -112 192t-316 68h-32l-24 130q227 28 335.5 100.5t108.5 181.5q0 87 -61 135.5t-173 48.5q-115 0 -177.5 -50.5t-62.5 -143.5h-214q0 119 56 204t163 129.5t257 44.5q204 0 315 -82.5t111 -235.5 q0 -82 -37 -151.5t-104 -118.5t-155 -72v-21q101 -17 177 -67t117.5 -129.5t41.5 -182.5q0 -126 -57.5 -216t-167.5 -137t-265 -47q-482 0 -482 418z" />
<glyph unicode="4" d="M72 318l3 3l199 1019h204l-167 -846h473v926h202v-926h134v-176h-134v-318h-202v318h-712z" />
<glyph unicode="5" d="M132 398h214q0 -111 65 -172.5t185 -61.5q136 0 210 77t74 217q0 288 -298 288q-135 0 -252 -66h-112l20 740h766v-186h-566l-20 -349q100 41 234 41q221 0 331.5 -118.5t110.5 -349.5q0 -151 -58.5 -258.5t-170.5 -163.5t-271 -56q-146 0 -250 49t-158 143t-54 226z" />
<glyph unicode="6" d="M118 526v48q0 407 207 619t629 233l20 -190q-319 -13 -476 -154.5t-158 -413.5h18q30 110 119 171t219 61q186 0 287 -115t101 -325q0 -151 -54.5 -259t-159 -164.5t-252.5 -56.5q-159 0 -271 64t-170.5 186.5t-58.5 295.5zM340 440q0 -276 280 -276q120 0 185 77.5 t65 218.5q0 123 -68.5 189.5t-195.5 66.5t-196.5 -72t-69.5 -204z" />
<glyph unicode="7" d="M112 922v498h1042l-488 -1420h-234l421 1224h-531v-302h-210z" />
<glyph unicode="8" d="M116 390q0 143 82.5 235t235.5 123v15q-135 30 -206.5 111.5t-71.5 205.5q0 113 52 194t152 123.5t240 42.5t240 -42.5t152 -123.5t52 -194q0 -123 -71.5 -204.5t-204.5 -112.5v-15q153 -32 234.5 -123.5t81.5 -234.5q0 -129 -57 -221t-165.5 -140.5t-261.5 -48.5 t-261.5 48.5t-165.5 140.5t-57 221zM330 400q0 -113 70.5 -174.5t199.5 -61.5t199.5 61.5t70.5 174.5q0 120 -70.5 187t-199.5 67t-199.5 -67t-70.5 -187zM370 1040q0 -92 60.5 -143t169.5 -51t169.5 51t60.5 143q0 103 -60 159.5t-170 56.5t-170 -56.5t-60 -159.5z" />
<glyph unicode="9" d="M118 960q0 151 54.5 259t159 164.5t252.5 56.5q159 0 271 -64t170.5 -186.5t58.5 -295.5v-48q0 -407 -207 -619t-629 -233l-20 190q319 13 476 154.5t158 413.5h-18q-30 -110 -119 -171t-219 -61q-186 0 -287 115t-101 325zM332 960q0 -123 68.5 -189.5t195.5 -66.5 t196.5 72t69.5 204q0 276 -280 276q-120 0 -185 -77.5t-65 -218.5z" />
<glyph unicode=":" d="M452 128q0 40 20 74t54 54t74 20t74 -20t54 -54t20 -74t-20 -74t-54 -54t-74 -20t-74 20t-54 54t-20 74zM452 932q0 40 20 74t54 54t74 20t74 -20t54 -54t20 -74t-20 -74t-54 -54t-74 -20t-74 20t-54 54t-20 74z" />
<glyph unicode=";" d="M402 -386l80 640h232l-120 -640h-192zM452 932q0 40 20 74t54 54t74 20t74 -20t54 -54t20 -74t-20 -74t-54 -54t-74 -20t-74 20t-54 54t-20 74z" />
<glyph unicode="&#x3c;" d="M96 608v202l958 394v-220l-740 -266v-18l740 -266v-220z" />
<glyph unicode="=" d="M100 366v186h1000v-186h-1000zM100 866v186h1000v-186h-1000z" />
<glyph unicode="&#x3e;" d="M146 214v220l700 266v18l-700 266v220l958 -394v-202z" />
<glyph unicode="?" d="M198 1062q0 119 50.5 204t146.5 129.5t231 44.5q132 0 226.5 -38.5t144 -112.5t49.5 -177q0 -227 -222 -374q-128 -83 -128 -200v-82h-196v96q0 198 164 302q162 105 162 248q0 70 -53 109t-149 39q-107 0 -165.5 -49t-58.5 -139h-202zM454 128q0 40 20 74t54 54t74 20 t74 -20t54 -54t20 -74t-20 -74t-54 -54t-74 -20t-74 20t-54 54t-20 74z" />
<glyph unicode="@" d="M108 720q0 228 65 389.5t189 246t298 84.5q412 0 412 -496v-124v-166v-356h-172v212h-12q-18 -111 -73.5 -171.5t-138.5 -60.5q-133 0 -206.5 110.5t-73.5 311.5q0 219 72.5 329.5t209.5 110.5q77 0 132.5 -61t77.5 -171h12v30q0 166 -60.5 249t-179.5 83 q-121 0 -207.5 -64.5t-131.5 -188t-45 -297.5q0 -280 98.5 -420t299.5 -140q163 0 248 60l20 -180q-92 -60 -268 -60q-281 0 -423.5 186.5t-142.5 553.5zM576 700q0 -111 41.5 -171.5t116.5 -60.5q79 0 122.5 60.5t43.5 171.5q0 128 -38.5 189t-113.5 61q-172 0 -172 -250z " />
<glyph unicode="A" d="M42 0l410 1420h290l410 -1420h-210l-93 346h-504l-93 -346h-210zM396 536h402l-192 712h-18z" />
<glyph unicode="B" d="M160 0v1420h422q216 0 334 -94t118 -266q0 -129 -88 -207t-252 -95v-12q211 -3 325.5 -93t114.5 -253q0 -126 -50.5 -216t-147 -137t-232.5 -47h-544zM360 190h286q132 0 205 60.5t73 169.5q0 112 -76.5 173.5t-215.5 61.5h-272v-465zM360 845h186q132 0 205 51t73 144 q0 91 -76 140.5t-216 49.5h-172v-385z" />
<glyph unicode="C" d="M96 712q0 230 72.5 393.5t211 249t334.5 85.5q145 0 275.5 -64.5t130.5 -273.5h-196q0 156 -208 156q-123 0 -214.5 -63t-141.5 -183.5t-50 -289.5q0 -279 121 -418.5t361 -139.5q145 0 286 60l46 -176q-174 -68 -366 -68q-662 0 -662 732z" />
<glyph unicode="D" d="M160 0v1420h344q326 0 488 -187t162 -563q0 -336 -162 -503t-488 -167h-344zM360 190h144q219 0 329.5 125t110.5 375q0 540 -440 540h-144v-1040z" />
<glyph unicode="E" d="M160 0v1420h940v-190h-740v-424h560v-190h-560v-426h740v-190h-940z" />
<glyph unicode="F" d="M160 0v1420h940v-190h-740v-484h560v-190h-560v-556h-200z" />
<glyph unicode="G" d="M96 712q0 230 72.5 393.5t211.5 249t334 85.5q406 0 406 -338h-196q0 78 -57 116t-171 38q-122 0 -208.5 -62.5t-132 -182.5t-45.5 -289q0 -279 112 -418.5t334 -139.5q83 0 174 20v336h-290v190h480v-670q-67 -22 -169 -41t-219 -19q-636 0 -636 732z" />
<glyph unicode="H" d="M140 0v1420h200v-618h518v618h200v-1420h-200v612h-518v-612h-200z" />
<glyph unicode="I" d="M168 0v190h331v1040h-331v190h864v-190h-333v-1040h333v-190h-864z" />
<glyph unicode="J" d="M96 496h200q0 -150 76.5 -233t216.5 -83q136 0 209.5 72t73.5 204v774h-372v190h572v-964q0 -144 -58 -246.5t-168 -156t-262 -53.5q-155 0 -264.5 58.5t-166.5 170t-57 267.5z" />
<glyph unicode="K" d="M160 0v1420h200v-728q178 15 299 119.5t180 264.5t59 344h206q0 -216 -78 -407.5t-222 -319.5l368 -693h-242l-300 577q-125 -60 -270 -72v-505h-200z" />
<glyph unicode="L" d="M160 0v1420h200v-1230h740v-190h-940z" />
<glyph unicode="M" d="M128 0v1420h312l152 -610h16l152 610h312v-1420h-192v1168h-26l-152 -588h-204l-152 588h-26v-1168h-192z" />
<glyph unicode="N" d="M148 0v1420h252l440 -1098h20v1098h192v-1420h-252l-440 1050h-20v-1050h-192z" />
<glyph unicode="O" d="M76 700q0 740 524 740t524 -740q0 -720 -524 -720t-524 720zM286 700q0 -536 314 -536t314 536q0 556 -314 556t-314 -556z" />
<glyph unicode="P" d="M160 0v1420h418q171 0 293 -56t185.5 -164t63.5 -260q0 -158 -63.5 -270.5t-185.5 -171t-293 -58.5h-218v-440h-200zM360 630h218q158 0 245 76t87 214q0 148 -87 229t-245 81h-218v-600z" />
<glyph unicode="Q" d="M76 700q0 740 524 740t524 -740q0 -652 -430 -714v-8q0 -258 236 -258h102l-20 -180h-82q-434 0 -434 440v8q-420 68 -420 712zM286 700q0 -536 314 -536t314 536q0 556 -314 556t-314 -556z" />
<glyph unicode="R" d="M138 0v1420h490q146 0 250 -50.5t158 -147t54 -232.5q0 -152 -62 -257t-179 -154l293 -579h-242l-257 540h-15h-290v-540h-200zM338 730h290q119 0 185.5 63t66.5 177q0 124 -66 192t-186 68h-290v-500z" />
<glyph unicode="S" d="M124 48l26 194q222 -88 412 -88q139 0 207.5 51.5t68.5 156.5q0 127 -130 186l-246 112q-150 68 -225 162t-75 228q0 123 53 210.5t154 133.5t243 46q128 0 219.5 -40t139 -115.5t47.5 -182.5h-196q0 74 -55 114t-155 40q-112 0 -174 -51.5t-62 -144.5q0 -67 35.5 -110.5 t110.5 -79.5l208 -98q164 -77 243 -171.5t79 -234.5q0 -198 -125.5 -297t-380.5 -99q-242 0 -422 78z" />
<glyph unicode="T" d="M80 1230v190h1040v-190h-420v-1230h-200v1230h-420z" />
<glyph unicode="U" d="M140 476v944h200v-944q0 -144 63 -215t197 -71q129 0 194.5 72t65.5 214v944h200v-944q0 -237 -117.5 -356.5t-346.5 -119.5q-456 0 -456 476z" />
<glyph unicode="V" d="M44 1420h214l332 -1270h18l332 1270h214l-400 -1440h-310z" />
<glyph unicode="W" d="M20 1420h190l120 -1280h20l146 860h210l144 -860h20l120 1280h190l-140 -1440h-324l-110 822h-12l-110 -822h-324z" />
<glyph unicode="X" d="M66 0l435 703l-435 717h230l305 -544l305 544h230l-435 -717l435 -703h-230l-305 533l-305 -533h-230z" />
<glyph unicode="Y" d="M26 1420h220l346 -710h18l346 710h220l-473 -913v-507h-200v499z" />
<glyph unicode="Z" d="M150 0v176l656 1054h-656v190h900v-190l-676 -1054h696v-176h-920z" />
<glyph unicode="[" d="M372 -200v1820h626v-176h-426v-1468h426v-176h-626z" />
<glyph unicode="\" d="M100 1520h202l814 -1800h-202z" />
<glyph unicode="]" d="M202 -24h414v1468h-414v176h626v-1820h-626v176z" />
<glyph unicode="^" d="M204 820l260 600h270l260 -600h-220l-166 440h-18l-166 -440h-220z" />
<glyph unicode="_" d="M100 0h1000v-176h-1000v176z" />
<glyph unicode="`" d="M344 1500h222l200 -380h-202z" />
<glyph unicode="a" d="M96 286q0 168 122.5 258t347.5 90q122 0 210 -25v57q0 108 -73.5 161t-222.5 61l-254 12l20 180l214 -8q262 -10 390 -119t128 -319v-442l180 -22v-170l-340 -10l-10 234h-21q-11 -120 -101.5 -182t-241.5 -62q-166 0 -257 79.5t-91 226.5zM296 306q0 -77 46 -116.5 t136 -39.5q94 0 161.5 33t102 86t34.5 111v64q-50 13 -99.5 16.5t-124.5 3.5q-126 0 -191 -40t-65 -118z" />
<glyph unicode="b" d="M168 0v1500h212v-632h20q15 212 260 212q140 0 240 -63.5t152 -184.5t52 -292q0 -177 -68.5 -302.5t-199 -191.5t-314.5 -66q-154 0 -354 20zM380 166q60 -6 184 -6q158 0 244 99.5t86 280.5q0 173 -63.5 266.5t-180.5 93.5q-270 0 -270 -304v-430z" />
<glyph unicode="c" d="M136 532q0 173 59 296t173 187.5t276 64.5q86 0 174.5 -20t167 -103.5t78.5 -254.5h-218q0 89 -53 138.5t-147 49.5q-138 0 -214 -91t-76 -257q0 -181 90.5 -276.5t259.5 -95.5q150 0 312 26l24 -186q-145 -30 -360 -30q-174 0 -296 64t-186 187.5t-64 300.5z" />
<glyph unicode="d" d="M96 520q0 177 49.5 303t145 191.5t229.5 65.5q127 0 196.5 -52.5t83.5 -159.5h20v632h212v-1500l-190 -10l-18 174h-24q-10 -90 -85 -137t-197 -47q-134 0 -228.5 62.5t-144 183.5t-49.5 294zM306 520q0 -178 62 -269t184 -91q268 0 268 180v256q0 304 -270 304 q-117 0 -180.5 -99t-63.5 -281z" />
<glyph unicode="e" d="M136 532q0 172 56 295t163.5 188t258.5 65q216 0 333 -131t117 -377q0 -73 -6 -136h-716q28 -132 126 -201t258 -69q123 0 260 28l26 -186q-147 -28 -310 -28q-181 0 -307.5 64t-192.5 187.5t-66 300.5zM334 598h538q0 142 -67.5 219t-188.5 77q-123 0 -196 -77t-86 -219 z" />
<glyph unicode="f" d="M68 644v176h334v150q0 276 125 413t377 137q114 0 220 -20l-22 -184q-118 14 -204 14q-284 0 -284 -350v-160h434v-176h-434v-644h-212v644h-334z" />
<glyph unicode="g" d="M96 520q0 177 49.5 303t145 191.5t229.5 65.5q127 0 196.5 -52.5t83.5 -159.5h23l17 192h192v-966q0 -190 -56.5 -311t-175.5 -182.5t-308 -68.5l-310 -10l-10 188l340 16q159 7 232.5 89t73.5 247v102h-18q-10 -90 -85 -137t-197 -47q-134 0 -228.5 62.5t-144 183.5 t-49.5 294zM306 520q0 -178 62 -269t184 -91q268 0 268 180v256q0 304 -270 304q-117 0 -180.5 -99t-63.5 -281z" />
<glyph unicode="h" d="M168 0v1500h212v-632h20q9 107 78 159.5t202 52.5q168 0 260 -102t92 -288v-690h-212v690q0 100 -50 155t-140 55q-250 0 -250 -304v-596h-212z" />
<glyph unicode="i" d="M160 0v174h404v710h-344v176h556v-886h326v-174h-942zM510 1376q0 40 20 74t54 54t74 20t74 -20t54 -54t20 -74t-20 -74t-54 -54t-74 -20t-74 20t-54 54t-20 74z" />
<glyph unicode="j" d="M170 -292l200 18q161 15 233.5 94t72.5 242v822h-412v176h624v-966q0 -189 -56 -307t-173.5 -179t-308.5 -76l-170 -12zM612 1376q0 40 20 74t54 54t74 20t74 -20t54 -54t20 -74t-20 -74t-54 -54t-74 -20t-74 20t-54 54t-20 74z" />
<glyph unicode="k" d="M160 0v1500h212v-888h58q134 0 218 44t132.5 141t71.5 263h220q-51 -385 -251 -536l319 -524h-262l-255 436q-70 -14 -143 -14h-108v-422h-212z" />
<glyph unicode="l" d="M88 1324v176h524v-1090q0 -90 16.5 -140.5t63 -75t136.5 -24.5q44 0 94.5 9t117.5 29l24 -186q-80 -22 -155 -32t-161 -10q-124 0 -200 44t-112 136t-36 240v924h-312z" />
<glyph unicode="m" d="M112 0v1060h188l14 -132h16q6 77 50.5 114.5t131.5 37.5q68 0 112 -38.5t59 -113.5h17q5 65 51.5 108.5t126.5 43.5q110 0 160 -59t50 -191v-830h-212v810q0 56 -20 83t-62 27q-104 0 -104 -144v-776h-180v830q0 90 -84 90q-102 0 -102 -144v-776h-212z" />
<glyph unicode="n" d="M168 0v1060h192l17 -192h23q9 107 78 159.5t202 52.5q168 0 260 -102t92 -288v-690h-212v690q0 100 -50 155t-140 55q-250 0 -250 -304v-596h-212z" />
<glyph unicode="o" d="M136 530q0 174 54.5 297.5t159 188t250.5 64.5t250.5 -64.5t159 -188t54.5 -297.5t-54.5 -297.5t-159 -188t-250.5 -64.5t-250.5 64.5t-159 188t-54.5 297.5zM356 530q0 -173 63.5 -266.5t180.5 -93.5t180.5 93.5t63.5 266.5t-63.5 266.5t-180.5 93.5t-180.5 -93.5 t-63.5 -266.5z" />
<glyph unicode="p" d="M168 -460v1520h192l17 -192h23q14 107 83.5 159.5t196.5 52.5q134 0 229.5 -65.5t145 -191.5t49.5 -303q0 -173 -49.5 -294t-144 -183.5t-228.5 -62.5q-122 0 -197 47t-85 137h-20v-624h-212zM380 340q0 -180 268 -180q122 0 184 91t62 269q0 182 -63.5 281t-180.5 99 q-270 0 -270 -304v-256z" />
<glyph unicode="q" d="M88 520q0 177 49.5 303t145 191.5t229.5 65.5q127 0 196.5 -52.5t83.5 -159.5h23l17 192h192v-1520h-212v624h-20q-10 -90 -85 -137t-197 -47q-134 0 -228.5 62.5t-144 183.5t-49.5 294zM298 520q0 -178 62 -269t184 -91q268 0 268 180v256q0 304 -270 304 q-117 0 -180.5 -99t-63.5 -281z" />
<glyph unicode="r" d="M80 0v176h236v708h-196v176h368l36 -272h24q9 147 81.5 219.5t210.5 72.5q110 0 178.5 -41.5t101 -128.5t32.5 -228h-210q0 115 -34.5 166.5t-111.5 51.5q-133 0 -200.5 -114t-67.5 -330v-280h260v-176h-708z" />
<glyph unicode="s" d="M156 10l24 192q204 -32 338 -32q160 0 233 31.5t73 100.5q0 46 -24.5 70t-79.5 38l-244 62q-102 26 -163 60t-91 86.5t-30 131.5q0 117 56.5 189.5t176 106.5t311.5 34q146 0 280 -20l-22 -184q-151 14 -264 14q-168 0 -243 -30.5t-75 -99.5q0 -44 26 -66t88 -38l196 -48 q114 -28 184 -66t104 -95t34 -141q0 -115 -55 -186.5t-170.5 -105.5t-300.5 -34q-122 0 -207.5 7t-154.5 23z" />
<glyph unicode="t" d="M60 884v176h266v320h212v-320h482v-176h-482v-474q0 -127 62 -183.5t202 -56.5q46 0 98.5 5t135.5 15l24 -186q-141 -24 -278 -24q-162 0 -262 44t-147 136t-47 240v484h-266z" />
<glyph unicode="u" d="M156 360v720h208v-720q0 -96 53 -148t149 -52q118 0 176 77.5t58 252.5v590h212v-888l146 -22v-170l-340 -10l-15 214h-19q-24 -108 -91.5 -166t-166.5 -58q-177 0 -273.5 99t-96.5 281z" />
<glyph unicode="v" d="M80 1060h226l290 -900h18l280 900h226l-374 -1080h-282z" />
<glyph unicode="w" d="M70 1060h200l60 -920h18l130 920h224l130 -920h18l80 920h200l-120 -1080h-270l-144 862h-12l-144 -862h-270z" />
<glyph unicode="x" d="M106 0l379 524l-379 536h240l254 -371l254 371h240l-384 -528l384 -532h-240l-259 368l-249 -368h-240z" />
<glyph unicode="y" d="M50 1060h220l336 -920h19l1 4l264 916h220l-306 -966q-60 -191 -134 -306.5t-175 -174t-245 -73.5l-180 -20l-10 190l166 20q124 15 204.5 73t136.5 177h-105z" />
<glyph unicode="z" d="M160 0v176l617 708h-617v176h856v-176l-601 -708h621v-176h-876z" />
<glyph unicode="{" d="M256 636v158q43 0 97.5 18t93.5 50.5t39 75.5l-1 144q-1 44 -1 132q0 202 97.5 312t274.5 110q80 0 140 -20l-24 -170q-60 20 -98 20q-85 0 -130.5 -65.5t-45.5 -186.5q0 -34 1 -78t2 -68q3 -70 3 -146q0 -89 -47.5 -138.5t-134.5 -51.5v-34q86 -2 134 -52.5t48 -137.5 q0 -37 -1 -83t-2 -69q-3 -69 -3 -140q0 -130 45.5 -200t130.5 -70q38 0 98 20l24 -170q-60 -20 -140 -20q-117 0 -200.5 52t-127.5 151t-44 237q0 90 1 135l1 141q0 52 -38 84t-91 46t-101 14z" />
<glyph unicode="|" d="M500 -280v2040h200v-2040h-200z" />
<glyph unicode="}" d="M204 -204l24 170q60 -20 98 -20q85 0 130.5 70t45.5 200q0 71 -3 140q-1 23 -2 69t-1 83q0 87 48 137.5t134 52.5v34q-87 2 -134.5 51.5t-47.5 138.5q0 35 1 79t2 67q3 72 3 146q0 121 -45.5 186.5t-130.5 65.5q-38 0 -98 -20l-24 170q60 20 140 20q177 0 274.5 -110 t97.5 -312q0 -88 -1 -132l-1 -144q0 -43 39 -75.5t93.5 -50.5t97.5 -18v-158q-48 0 -101 -14t-91 -46t-38 -84l1 -141q1 -45 1 -135q0 -138 -44 -237t-127.5 -151t-200.5 -52q-80 0 -140 20z" />
<glyph unicode="~" d="M100 446v50q0 171 64.5 255.5t195.5 84.5q49 0 97.5 -7.5t121.5 -22.5t121.5 -22.5t97.5 -7.5q100 0 100 164v30h202v-50q0 -171 -54.5 -255.5t-165.5 -84.5q-51 0 -101.5 7.5t-126.5 22.5t-126.5 22.5t-101.5 7.5q-120 0 -120 -164v-30h-204z" />
<glyph unicode="&#xa0;" />
<glyph unicode="&#xad;" d="M100 616v186h1000v-186h-1000z" />
<glyph unicode="&#xd7;" d="M121 309l357 378l-357 378l128 123l351 -372l351 372l128 -123l-357 -378l357 -378l-128 -121l-351 371l-351 -371z" />
<glyph unicode="&#xf7;" d="M100 616v186h1000v-186h-1000zM459 291q0 38 19 70.5t51.5 51.5t70.5 19t70.5 -19t51.5 -51.5t19 -70.5t-19 -70t-51.5 -51t-70.5 -19t-70.5 19t-51.5 51t-19 70zM459 1085q0 38 19 70t51.5 51t70.5 19t70.5 -19t51.5 -51t19 -70t-19 -70.5t-51.5 -51.5t-70.5 -19 t-70.5 19t-51.5 51.5t-19 70.5z" />
<glyph unicode="&#x2000;" horiz-adv-x="880" />
<glyph unicode="&#x2001;" horiz-adv-x="1760" />
<glyph unicode="&#x2002;" horiz-adv-x="880" />
<glyph unicode="&#x2003;" horiz-adv-x="1760" />
<glyph unicode="&#x2004;" horiz-adv-x="586" />
<glyph unicode="&#x2005;" horiz-adv-x="440" />
<glyph unicode="&#x2006;" horiz-adv-x="293" />
<glyph unicode="&#x2007;" horiz-adv-x="293" />
<glyph unicode="&#x2008;" horiz-adv-x="220" />
<glyph unicode="&#x2009;" horiz-adv-x="352" />
<glyph unicode="&#x200a;" horiz-adv-x="97" />
<glyph unicode="&#x2010;" d="M100 616v186h1000v-186h-1000z" />
<glyph unicode="&#x2011;" d="M100 616v186h1000v-186h-1000z" />
<glyph unicode="&#x2012;" d="M100 616v186h1000v-186h-1000z" />
<glyph unicode="&#x2013;" horiz-adv-x="1224" d="M100 616v186h1024v-186h-1024z" />
<glyph unicode="&#x2014;" horiz-adv-x="2248" d="M100 616v186h2048v-186h-2048z" />
<glyph unicode="&#x2018;" d="M286 1420h192l180 -640h-232z" />
<glyph unicode="&#x2019;" d="M442 780l140 640h232l-180 -640h-192z" />
<glyph unicode="&#x201c;" d="M168 1420h192l180 -640h-232zM608 1420h192l180 -640h-232z" />
<glyph unicode="&#x201d;" d="M220 780l140 640h232l-180 -640h-192zM660 780l140 640h232l-180 -640h-192z" />
<glyph unicode="&#x202f;" horiz-adv-x="352" />
<glyph unicode="&#x205f;" horiz-adv-x="440" />
<glyph unicode="&#x25fc;" horiz-adv-x="1060" d="M0 0v1060h1060v-1060h-1060z" />
</font>
</defs>
</svg>
